<svg width="143" height="128" viewBox="0 0 143 128" fill="none" xmlns="http://www.w3.org/2000/svg">
<g clip-path="url(#clip0_4665_2571)">
<path d="M73.235 0.279265L68.5821 1.47598L11.2566 16.2197L6.60359 17.4164C4.34509 18 2.41092 19.4533 1.22542 21.4573C0.0399157 23.4614 -0.300108 25.8526 0.279945 28.1064L20.4562 106.137C21.0414 108.39 22.4985 110.319 24.5079 111.501C26.5173 112.684 28.9149 113.023 31.1747 112.444L31.1868 112.441L97.7942 95.3101L97.8062 95.307C100.065 94.7234 101.999 93.2701 103.184 91.2661C104.37 89.262 104.71 86.8708 104.13 84.617L83.9535 6.58612C83.3684 4.33363 81.9113 2.4046 79.9019 1.22224C77.8924 0.0398859 75.4948 -0.299241 73.235 0.279265Z" fill="#F2F2F2"/>
<path d="M73.8675 2.72552L68.3564 4.14294L12.7471 18.4453L7.23601 19.8627C5.62768 20.2783 4.25031 21.3132 3.40608 22.7403C2.56185 24.1675 2.3197 25.8703 2.73277 27.4753L22.9091 105.506C23.3258 107.11 24.3634 108.484 25.7944 109.326C27.2253 110.168 28.9327 110.409 30.542 109.997L30.554 109.994L97.1614 92.8633L97.1735 92.8602C98.7818 92.4446 100.159 91.4097 101.003 89.9826C101.848 88.5555 102.09 86.8526 101.677 85.2477L81.5003 7.21678C81.0837 5.61274 80.046 4.23905 78.6151 3.39706C77.1842 2.55508 75.4768 2.31357 73.8675 2.72552Z" fill="white"/>
<path d="M69.7062 27.994L36.0112 36.6601C35.6348 36.7569 35.2353 36.7006 34.9006 36.5037C34.5659 36.3067 34.3233 35.9852 34.2262 35.6099C34.1292 35.2345 34.1856 34.8361 34.3831 34.5023C34.5806 34.1684 34.903 33.9265 35.2793 33.8297L68.9744 25.1635C69.3506 25.0671 69.7498 25.1236 70.0842 25.3206C70.4187 25.5176 70.661 25.839 70.758 26.2141C70.855 26.5892 70.7987 26.9874 70.6015 27.3212C70.4043 27.6549 70.0823 27.8969 69.7062 27.994Z" fill="#F2F2F2"/>
<path d="M76.7945 31.2649L37.2461 41.4365C36.8698 41.5333 36.4703 41.477 36.1356 41.2801C35.8008 41.0831 35.5583 40.7616 35.4612 40.3863C35.3642 40.0109 35.4206 39.6125 35.6181 39.2787C35.8156 38.9448 36.1379 38.7029 36.5143 38.6061L76.0627 28.4345C76.439 28.3377 76.8385 28.394 77.1732 28.5909C77.508 28.7879 77.7506 29.1094 77.8476 29.4847C77.9447 29.8601 77.8882 30.2585 77.6908 30.5923C77.4933 30.9262 77.1709 31.1681 76.7945 31.2649Z" fill="#F2F2F2"/>
<path d="M75.2409 49.3991L41.5458 58.0652C41.3595 58.1131 41.1655 58.124 40.9749 58.0972C40.7844 58.0703 40.601 58.0063 40.4353 57.9088C40.2695 57.8113 40.1247 57.6821 40.009 57.5288C39.8932 57.3754 39.809 57.2008 39.7609 57.015C39.7128 56.8291 39.702 56.6356 39.7289 56.4456C39.7558 56.2556 39.82 56.0727 39.9178 55.9074C40.0155 55.7421 40.145 55.5976 40.2988 55.4822C40.4526 55.3668 40.6276 55.2827 40.814 55.2348L74.509 46.5686C74.6954 46.5207 74.8894 46.5099 75.0799 46.5367C75.2705 46.5635 75.4538 46.6276 75.6196 46.7251C75.7853 46.8226 75.9302 46.9517 76.0459 47.1051C76.1616 47.2585 76.2459 47.433 76.294 47.6189C76.342 47.8047 76.3529 47.9982 76.326 48.1883C76.2991 48.3783 76.2349 48.5612 76.1371 48.7265C76.0393 48.8918 75.9098 49.0363 75.7561 49.1517C75.6023 49.2671 75.4272 49.3511 75.2409 49.3991Z" fill="#F2F2F2"/>
<path d="M82.3292 52.67L42.7808 62.8416C42.5945 62.8895 42.4005 62.9004 42.2099 62.8735C42.0194 62.8467 41.836 62.7827 41.6702 62.6852C41.5045 62.5876 41.3596 62.4585 41.2439 62.3051C41.1282 62.1518 41.0439 61.9772 40.9959 61.7913C40.9478 61.6055 40.937 61.412 40.9639 61.222C40.9908 61.0319 41.055 60.849 41.1527 60.6837C41.2505 60.5184 41.38 60.374 41.5338 60.2586C41.6875 60.1432 41.8626 60.0591 42.0489 60.0112L81.5974 49.8396C81.9737 49.7428 82.3732 49.7991 82.7079 49.996C83.0426 50.193 83.2852 50.5145 83.3823 50.8898C83.4793 51.2652 83.4229 51.6636 83.2254 51.9974C83.0279 52.3313 82.7055 52.5732 82.3292 52.67Z" fill="#F2F2F2"/>
<path d="M80.7756 70.8042L47.0805 79.4703C46.7043 79.5668 46.305 79.5104 45.9705 79.3134C45.636 79.1164 45.3936 78.795 45.2965 78.4198C45.1995 78.0446 45.2559 77.6464 45.4532 77.3126C45.6504 76.9789 45.9725 76.7369 46.3486 76.6399L80.0437 67.9737C80.42 67.8769 80.8195 67.9332 81.1542 68.1302C81.489 68.3271 81.7316 68.6486 81.8286 69.024C81.9257 69.3993 81.8692 69.7977 81.6717 70.1316C81.4743 70.4654 81.1519 70.7074 80.7756 70.8042Z" fill="#F2F2F2"/>
<path d="M87.8639 74.0751L48.3155 84.2467C48.1291 84.2948 47.935 84.3058 47.7443 84.2791C47.5537 84.2524 47.3701 84.1884 47.2043 84.0909C47.0384 83.9934 46.8934 83.8642 46.7776 83.7108C46.6618 83.5574 46.5774 83.3827 46.5293 83.1968C46.4813 83.0108 46.4704 82.8172 46.4974 82.6271C46.5243 82.4369 46.5886 82.254 46.6865 82.0886C46.7844 81.9232 46.9141 81.7788 47.068 81.6634C47.2219 81.548 47.3972 81.4641 47.5837 81.4163L87.1321 71.2447C87.5084 71.1479 87.9079 71.2042 88.2426 71.4011C88.5774 71.5981 88.8199 71.9196 88.917 72.2949C89.014 72.6703 88.9576 73.0687 88.7601 73.4025C88.5626 73.7364 88.2403 73.9783 87.8639 74.0751Z" fill="#F2F2F2"/>
<path d="M30.2589 45.546L18.3345 48.6129C18.1541 48.6591 17.9627 48.632 17.8022 48.5376C17.6417 48.4432 17.5254 48.2891 17.4787 48.1093L14.7415 37.5232C14.6951 37.3432 14.7223 37.1523 14.8169 36.9923C14.9116 36.8322 15.0661 36.7162 15.2464 36.6696L27.1708 33.6027C27.3512 33.5565 27.5427 33.5836 27.7031 33.678C27.8636 33.7724 27.9799 33.9265 28.0266 34.1063L30.7639 44.6924C30.8102 44.8724 30.783 45.0633 30.6884 45.2234C30.5937 45.3834 30.4393 45.4994 30.2589 45.546Z" fill="#E6E6E6"/>
<path d="M35.7936 66.9511L23.8692 70.018C23.6888 70.0642 23.4973 70.0371 23.3369 69.9427C23.1764 69.8483 23.0601 69.6942 23.0133 69.5144L20.2761 58.9283C20.2298 58.7483 20.257 58.5574 20.3516 58.3973C20.4463 58.2373 20.6007 58.1213 20.7811 58.0747L32.7054 55.0078C32.8859 54.9616 33.0773 54.9887 33.2378 55.0831C33.3982 55.1775 33.5146 55.3316 33.5613 55.5114L36.2985 66.0975C36.3448 66.2775 36.3177 66.4684 36.223 66.6284C36.1284 66.7885 35.9739 66.9045 35.7936 66.9511Z" fill="#E6E6E6"/>
<path d="M41.3283 88.3562L29.4039 91.4231C29.2234 91.4693 29.032 91.4422 28.8715 91.3478C28.7111 91.2534 28.5947 91.0993 28.548 90.9195L25.8108 80.3334C25.7645 80.1534 25.7916 79.9625 25.8863 79.8024C25.9809 79.6424 26.1354 79.5264 26.3157 79.4798L38.2401 76.4129C38.4205 76.3667 38.612 76.3938 38.7724 76.4882C38.9329 76.5826 39.0492 76.7366 39.096 76.9165L41.8332 87.5026C41.8795 87.6826 41.8524 87.8735 41.7577 88.0335C41.663 88.1936 41.5086 88.3096 41.3283 88.3562Z" fill="#E6E6E6"/>
<path d="M119.707 20.0589H50.8957C48.5626 20.0615 46.3259 20.987 44.6761 22.6324C43.0264 24.2777 42.0984 26.5085 42.0958 28.8354V109.419C42.0984 111.746 43.0264 113.977 44.6761 115.622C46.3259 117.267 48.5626 118.193 50.8957 118.196H119.707C122.04 118.193 124.277 117.267 125.927 115.622C127.576 113.977 128.504 111.746 128.507 109.419V28.8354C128.504 26.5085 127.576 24.2777 125.927 22.6324C124.277 20.987 122.04 20.0615 119.707 20.0589Z" fill="#E6E6E6"/>
<path d="M119.707 22.5854H50.8956C49.2342 22.5873 47.6413 23.2464 46.4665 24.4181C45.2917 25.5897 44.6309 27.1783 44.629 28.8353V109.419C44.6309 111.076 45.2917 112.665 46.4665 113.836C47.6413 115.008 49.2342 115.667 50.8956 115.669H119.707C121.368 115.667 122.961 115.008 124.136 113.836C125.311 112.665 125.972 111.076 125.974 109.419V28.8353C125.972 27.1784 125.311 25.5898 124.136 24.4181C122.961 23.2464 121.368 22.5873 119.707 22.5854Z" fill="white"/>
<path d="M126.936 128C135.808 128 143 120.827 143 111.979C143 103.131 135.808 95.9579 126.936 95.9579C118.064 95.9579 110.872 103.131 110.872 111.979C110.872 120.827 118.064 128 126.936 128Z" fill="#D4D6DB"/>
<path d="M134.619 109.889H129.031V104.317C129.031 103.763 128.811 103.231 128.418 102.839C128.025 102.447 127.492 102.227 126.936 102.227C126.38 102.227 125.848 102.447 125.455 102.839C125.062 103.231 124.841 103.763 124.841 104.317V109.889H119.253C118.698 109.889 118.165 110.109 117.772 110.501C117.379 110.893 117.158 111.425 117.158 111.979C117.158 112.533 117.379 113.065 117.772 113.457C118.165 113.849 118.698 114.069 119.253 114.069H124.841V119.641C124.841 120.195 125.062 120.727 125.455 121.119C125.848 121.511 126.38 121.731 126.936 121.731C127.492 121.731 128.025 121.511 128.418 121.119C128.811 120.727 129.031 120.195 129.031 119.641V114.069H134.619C135.175 114.069 135.708 113.849 136.1 113.457C136.493 113.065 136.714 112.533 136.714 111.979C136.714 111.425 136.493 110.893 136.1 110.501C135.708 110.109 135.175 109.889 134.619 109.889Z" fill="white"/>
<path d="M109.351 66.866H74.5535C74.3609 66.8662 74.1702 66.8286 73.9922 66.7552C73.8142 66.6819 73.6525 66.5743 73.5162 66.4385C73.38 66.3028 73.2719 66.1416 73.1981 65.9642C73.1244 65.7868 73.0864 65.5966 73.0864 65.4045C73.0864 65.2124 73.1244 65.0223 73.1981 64.8448C73.2719 64.6674 73.38 64.5062 73.5162 64.3705C73.6525 64.2347 73.8142 64.1271 73.9922 64.0538C74.1702 63.9804 74.3609 63.9428 74.5535 63.943H109.351C109.739 63.9434 110.112 64.0976 110.386 64.3716C110.661 64.6457 110.815 65.0172 110.815 65.4045C110.815 65.7918 110.661 66.1633 110.386 66.4374C110.112 66.7114 109.739 66.8656 109.351 66.866Z" fill="#E6E6E6"/>
<path d="M115.396 71.7986H74.5535C74.3609 71.7988 74.1702 71.7611 73.9922 71.6878C73.8142 71.6144 73.6525 71.5068 73.5162 71.3711C73.38 71.2354 73.2719 71.0742 73.1981 70.8967C73.1244 70.7193 73.0864 70.5291 73.0864 70.3371C73.0864 70.145 73.1244 69.9548 73.1981 69.7774C73.2719 69.6 73.38 69.4388 73.5162 69.303C73.6525 69.1673 73.8142 69.0597 73.9922 68.9863C74.1702 68.913 74.3609 68.8753 74.5535 68.8756H115.396C115.784 68.8756 116.157 69.0295 116.432 69.3036C116.707 69.5777 116.861 69.9494 116.861 70.3371C116.861 70.7247 116.707 71.0964 116.432 71.3705C116.157 71.6446 115.784 71.7986 115.396 71.7986Z" fill="#E6E6E6"/>
<path d="M109.351 88.9714H74.5535C74.3609 88.9716 74.1702 88.9339 73.9922 88.8606C73.8142 88.7872 73.6525 88.6796 73.5162 88.5439C73.38 88.4081 73.2719 88.247 73.1981 88.0695C73.1244 87.8921 73.0864 87.7019 73.0864 87.5099C73.0864 87.3178 73.1244 87.1276 73.1981 86.9502C73.2719 86.7728 73.38 86.6116 73.5162 86.4758C73.6525 86.3401 73.8142 86.2325 73.9922 86.1591C74.1702 86.0858 74.3609 86.0481 74.5535 86.0483H109.351C109.74 86.0483 110.112 86.2023 110.387 86.4764C110.662 86.7505 110.816 87.1222 110.816 87.5099C110.816 87.8975 110.662 88.2692 110.387 88.5433C110.112 88.8174 109.74 88.9714 109.351 88.9714Z" fill="#E6E6E6"/>
<path d="M115.396 93.904H74.5535C74.3609 93.9042 74.1702 93.8666 73.9922 93.7932C73.8142 93.7199 73.6525 93.6122 73.5162 93.4765C73.38 93.3408 73.2719 93.1796 73.1981 93.0021C73.1244 92.8247 73.0864 92.6345 73.0864 92.4425C73.0864 92.2504 73.1244 92.0602 73.1981 91.8828C73.2719 91.7054 73.38 91.5442 73.5162 91.4084C73.6525 91.2727 73.8142 91.1651 73.9922 91.0917C74.1702 91.0184 74.3609 90.9807 74.5535 90.981H115.396C115.588 90.9807 115.779 91.0184 115.957 91.0917C116.135 91.1651 116.297 91.2727 116.433 91.4084C116.569 91.5442 116.677 91.7054 116.751 91.8828C116.825 92.0602 116.863 92.2504 116.863 92.4425C116.863 92.6345 116.825 92.8247 116.751 93.0021C116.677 93.1796 116.569 93.3408 116.433 93.4765C116.297 93.6122 116.135 93.7199 115.957 93.7932C115.779 93.8666 115.588 93.9042 115.396 93.904Z" fill="#E6E6E6"/>
<path d="M66.7586 74.0378H54.4441C54.2578 74.0376 54.0792 73.9637 53.9475 73.8323C53.8158 73.7009 53.7417 73.5228 53.7415 73.337V62.4046C53.7417 62.2188 53.8158 62.0407 53.9475 61.9093C54.0792 61.7779 54.2578 61.704 54.4441 61.7038H66.7586C66.9449 61.704 67.1235 61.7779 67.2552 61.9093C67.387 62.0407 67.4611 62.2188 67.4613 62.4046V73.337C67.4611 73.5228 67.387 73.7009 67.2552 73.8323C67.1235 73.9637 66.9449 74.0376 66.7586 74.0378Z" fill="#E6E6E6"/>
<path d="M66.7586 96.1432H54.4441C54.2578 96.143 54.0792 96.0691 53.9475 95.9377C53.8158 95.8063 53.7417 95.6282 53.7415 95.4424V84.5099C53.7417 84.3241 53.8158 84.146 53.9475 84.0146C54.0792 83.8832 54.2578 83.8093 54.4441 83.8091H66.7586C66.9449 83.8093 67.1235 83.8832 67.2552 84.0146C67.387 84.146 67.4611 84.3241 67.4613 84.5099V95.4424C67.4611 95.6282 67.387 95.8063 67.2552 95.9377C67.1235 96.0691 66.9449 96.143 66.7586 96.1432Z" fill="#E6E6E6"/>
<path d="M109.39 42.2584H83.7348C83.3462 42.2584 82.9734 42.1044 82.6986 41.8303C82.4238 41.5562 82.2694 41.1845 82.2694 40.7968C82.2694 40.4092 82.4238 40.0375 82.6986 39.7634C82.9734 39.4893 83.3462 39.3353 83.7348 39.3353H109.39C109.778 39.3353 110.151 39.4893 110.426 39.7634C110.701 40.0375 110.855 40.4092 110.855 40.7968C110.855 41.1845 110.701 41.5562 110.426 41.8303C110.151 42.1044 109.778 42.2584 109.39 42.2584Z" fill="#CCCCCC"/>
<path d="M115.434 47.191H83.7348C83.5424 47.191 83.3518 47.1532 83.174 47.0797C82.9962 47.0063 82.8347 46.8986 82.6986 46.7629C82.5625 46.6272 82.4546 46.4661 82.381 46.2888C82.3073 46.1114 82.2694 45.9214 82.2694 45.7295C82.2694 45.5375 82.3073 45.3475 82.381 45.1702C82.4546 44.9928 82.5625 44.8317 82.6986 44.696C82.8347 44.5603 82.9962 44.4526 83.174 44.3792C83.3518 44.3057 83.5424 44.2679 83.7348 44.2679H115.434C115.823 44.2679 116.196 44.4219 116.471 44.696C116.745 44.9701 116.9 45.3418 116.9 45.7295C116.9 46.1171 116.745 46.4888 116.471 46.7629C116.196 47.037 115.823 47.191 115.434 47.191Z" fill="#CCCCCC"/>
<path d="M78.057 53.1687H54.4055C54.2193 53.1685 54.0406 53.0946 53.9089 52.9632C53.7772 52.8318 53.7031 52.6537 53.7029 52.4679V34.0584C53.7031 33.8726 53.7772 33.6945 53.9089 33.5631C54.0406 33.4317 54.2193 33.3578 54.4055 33.3576H78.057C78.2433 33.3578 78.4219 33.4317 78.5536 33.5631C78.6853 33.6945 78.7594 33.8726 78.7597 34.0584V52.4679C78.7594 52.6537 78.6853 52.8318 78.5536 52.9632C78.4219 53.0946 78.2433 53.1685 78.057 53.1687Z" fill="#D4D6DB"/>
</g>
<defs>
<clipPath id="clip0_4665_2571">
<rect width="143" height="128" fill="white"/>
</clipPath>
</defs>
</svg>
