<svg width="24" height="24" viewBox="0 0 24 24" fill="none" xmlns="http://www.w3.org/2000/svg">
<path fill-rule="evenodd" clip-rule="evenodd" d="M9 4.50232C9.33486 4.50232 9.62915 4.7243 9.72114 5.04628L10.5343 7.89247C10.8903 9.13825 11.8641 10.112 13.1099 10.468L15.956 11.2812C16.278 11.3732 16.5 11.6675 16.5 12.0023C16.5 12.3372 16.278 12.6315 15.956 12.7235L13.1098 13.5367C11.8641 13.8926 10.8903 14.8664 10.5343 16.1122L9.72114 18.9584C9.62915 19.2803 9.33486 19.5023 9 19.5023C8.66514 19.5023 8.37085 19.2803 8.27886 18.9584L7.46566 16.1122C7.10972 14.8664 6.13593 13.8926 4.89015 13.5367L2.04396 12.7235C1.72198 12.6315 1.5 12.3372 1.5 12.0023C1.5 11.6675 1.72198 11.3732 2.04396 11.2812L4.89015 10.468C6.13593 10.112 7.10972 9.13825 7.46566 7.89247L8.27886 5.04628C8.37085 4.7243 8.66514 4.50232 9 4.50232Z" fill="#0F172A"/>
<path fill-rule="evenodd" clip-rule="evenodd" d="M18 1.50232C18.3442 1.50232 18.6441 1.73654 18.7276 2.07042L18.9865 3.10588C19.2216 4.04638 19.9559 4.78072 20.8964 5.01585L21.9319 5.27471C22.2658 5.35818 22.5 5.65817 22.5 6.00232C22.5 6.34647 22.2658 6.64646 21.9319 6.72993L20.8964 6.98879C19.9559 7.22392 19.2216 7.95826 18.9865 8.89876L18.7276 9.93422C18.6441 10.2681 18.3442 10.5023 18 10.5023C17.6558 10.5023 17.3559 10.2681 17.2724 9.93422L17.0135 8.89876C16.7784 7.95826 16.0441 7.22392 15.1036 6.98879L14.0681 6.72993C13.7342 6.64646 13.5 6.34647 13.5 6.00232C13.5 5.65817 13.7342 5.35818 14.0681 5.27471L15.1036 5.01585C16.0441 4.78072 16.7784 4.04638 17.0135 3.10588L17.2724 2.07042C17.3559 1.73654 17.6558 1.50232 18 1.50232Z" fill="#0F172A"/>
<path fill-rule="evenodd" clip-rule="evenodd" d="M16.5 15.0023C16.8228 15.0023 17.1094 15.2089 17.2115 15.5151L17.6058 16.6979C17.7551 17.1458 18.1065 17.4973 18.5544 17.6466L19.7372 18.0408C20.0434 18.1429 20.25 18.4295 20.25 18.7523C20.25 19.0751 20.0434 19.3617 19.7372 19.4638L18.5544 19.8581C18.1065 20.0074 17.7551 20.3589 17.6058 20.8068L17.2115 21.9895C17.1094 22.2957 16.8228 22.5023 16.5 22.5023C16.1772 22.5023 15.8906 22.2957 15.7885 21.9895L15.3942 20.8068C15.2449 20.3589 14.8935 20.0074 14.4456 19.8581L13.2628 19.4638C12.9566 19.3617 12.75 19.0751 12.75 18.7523C12.75 18.4295 12.9566 18.1429 13.2628 18.0408L14.4456 17.6466C14.8935 17.4973 15.2449 17.1458 15.3942 16.6979L15.7885 15.5151C15.8906 15.2089 16.1772 15.0023 16.5 15.0023Z" fill="#0F172A"/>
</svg>
